<?xml version="1.0" encoding="UTF-8"?>
<!DOCTYPE svg PUBLIC "-//W3C//DTD SVG 1.1//EN" "http://www.w3.org/Graphics/SVG/1.1/DTD/svg11.dtd">
<svg xmlns="http://www.w3.org/2000/svg" version="1.1" width="306px" height="300px" style="shape-rendering:geometricPrecision; text-rendering:geometricPrecision; image-rendering:optimizeQuality; fill-rule:evenodd; clip-rule:evenodd" xmlns:xlink="http://www.w3.org/1999/xlink">
<g><path style="opacity:0.997" fill="#db524a" d="M 200.5,9.5 C 200.5,21.5 200.5,33.5 200.5,45.5C 165.167,45.5 129.833,45.5 94.5,45.5C 91.9596,76.4776 89.6263,107.478 87.5,138.5C 87.8333,140.833 88.1667,143.167 88.5,145.5C 92.8797,148.382 97.3797,151.048 102,153.5C 119.003,149.417 136.17,148.583 153.5,151C 175.72,157.576 184.553,172.41 180,195.5C 176.5,209.667 167.667,218.5 153.5,222C 135.926,225.635 118.593,224.635 101.5,219C 95.1049,216.462 88.7715,213.962 82.5,211.5C 82.1926,221.582 82.5259,231.582 83.5,241.5C 83.5,255.5 83.5,269.5 83.5,283.5C 32.3343,256.637 4.3343,214.304 -0.5,156.5C -0.5,152.167 -0.5,147.833 -0.5,143.5C 3.56352,87.9551 29.5635,46.1218 77.5,18C 111.107,0.548932 146.44,-4.11773 183.5,4C 189.428,5.39085 195.095,7.22418 200.5,9.5 Z"/></g>
<g><path style="opacity:0.996" fill="#25a162" d="M 200.5,9.5 C 242.606,25.1046 272.106,53.7713 289,95.5C 310.353,160.253 296.52,216.087 247.5,263C 220.465,285.289 189.465,297.456 154.5,299.5C 151.5,299.5 148.5,299.5 145.5,299.5C 123.722,298.555 103.055,293.222 83.5,283.5C 83.5,269.5 83.5,255.5 83.5,241.5C 111.13,252.611 139.463,254.444 168.5,247C 196.121,238.284 211.288,219.451 214,190.5C 217.518,163.036 207.351,142.536 183.5,129C 177.023,126.381 170.357,124.381 163.5,123C 148.751,122.007 134.085,122.507 119.5,124.5C 120.533,107.808 121.866,91.1416 123.5,74.5C 149.167,74.5 174.833,74.5 200.5,74.5C 200.5,64.8333 200.5,55.1667 200.5,45.5C 200.5,33.5 200.5,21.5 200.5,9.5 Z"/></g>
<g><path style="opacity:1" fill="#fefdfd" d="M 200.5,45.5 C 200.5,55.1667 200.5,64.8333 200.5,74.5C 174.833,74.5 149.167,74.5 123.5,74.5C 121.866,91.1416 120.533,107.808 119.5,124.5C 134.085,122.507 148.751,122.007 163.5,123C 170.357,124.381 177.023,126.381 183.5,129C 207.351,142.536 217.518,163.036 214,190.5C 211.288,219.451 196.121,238.284 168.5,247C 139.463,254.444 111.13,252.611 83.5,241.5C 82.5259,231.582 82.1926,221.582 82.5,211.5C 88.7715,213.962 95.1049,216.462 101.5,219C 118.593,224.635 135.926,225.635 153.5,222C 167.667,218.5 176.5,209.667 180,195.5C 184.553,172.41 175.72,157.576 153.5,151C 136.17,148.583 119.003,149.417 102,153.5C 97.3797,151.048 92.8797,148.382 88.5,145.5C 88.1667,143.167 87.8333,140.833 87.5,138.5C 89.6263,107.478 91.9596,76.4776 94.5,45.5C 129.833,45.5 165.167,45.5 200.5,45.5 Z"/></g>
</svg>
