<?xml version="1.0" encoding="UTF-8"?>
<!DOCTYPE svg PUBLIC "-//W3C//DTD SVG 1.1//EN" "http://www.w3.org/Graphics/SVG/1.1/DTD/svg11.dtd">
<svg xmlns="http://www.w3.org/2000/svg" version="1.1" width="128px" height="128px" style="shape-rendering:geometricPrecision; text-rendering:geometricPrecision; image-rendering:optimizeQuality; fill-rule:evenodd; clip-rule:evenodd" xmlns:xlink="http://www.w3.org/1999/xlink">
<g><path style="opacity:0.936" fill="#a50b0a" d="M 80.5,13.5 C 74.6727,11.6399 68.6727,10.6399 62.5,10.5C 62.5,11.5 62.5,12.5 62.5,13.5C 61.1667,13.5 59.8333,13.5 58.5,13.5C 58.719,12.325 58.3857,11.325 57.5,10.5C 53.9112,11.8716 50.2445,12.8716 46.5,13.5C 52.6455,3.61855 61.3121,0.785219 72.5,5C 76.0483,7.047 78.715,9.88033 80.5,13.5 Z"/></g>
<g><path style="opacity:1" fill="#ba1918" d="M 80.5,13.5 C 81.9313,14.7804 82.5979,16.4471 82.5,18.5C 82.6309,19.3764 82.2975,20.0431 81.5,20.5C 77.6928,18.6743 73.6928,17.6743 69.5,17.5C 69.822,19.7224 69.1554,21.5557 67.5,23C 64.0791,23.101 60.9124,23.9343 58,25.5C 55.9803,24.9681 55.147,23.6348 55.5,21.5C 51.3146,21.8375 47.4813,23.1709 44,25.5C 43.6174,24.944 43.1174,24.6107 42.5,24.5C 42.7769,20.3559 44.1103,16.6892 46.5,13.5C 50.2445,12.8716 53.9112,11.8716 57.5,10.5C 58.3857,11.325 58.719,12.325 58.5,13.5C 59.8333,13.5 61.1667,13.5 62.5,13.5C 62.5,12.5 62.5,11.5 62.5,10.5C 68.6727,10.6399 74.6727,11.6399 80.5,13.5 Z"/></g>
<g><path style="opacity:0.922" fill="#d95e75" d="M 35.5,30.5 C 34.8333,29.5 34.1667,28.5 33.5,27.5C 35.9373,22.8949 34.2706,20.8949 28.5,21.5C 29.4919,19.9735 30.9919,19.3068 33,19.5C 38.0903,19.8485 39.7569,22.5152 38,27.5C 37.6232,28.9423 36.7899,29.9423 35.5,30.5 Z"/></g>
<g><path style="opacity:0.92" fill="#d85c73" d="M 98.5,21.5 C 92.7294,20.8949 91.0627,22.8949 93.5,27.5C 92.8333,28.5 92.1667,29.5 91.5,30.5C 88.7636,28.1421 87.9302,25.1421 89,21.5C 90.2991,20.0203 91.9658,19.3536 94,19.5C 96.0081,19.3068 97.5081,19.9735 98.5,21.5 Z"/></g>
<g><path style="opacity:0.98" fill="#db2f2e" d="M 82.5,18.5 C 84.0186,21.5256 84.6852,24.8589 84.5,28.5C 84.868,33.2781 83.868,37.6114 81.5,41.5C 81.4386,39.4078 80.4386,37.9078 78.5,37C 69.1979,33.0108 59.8646,32.6775 50.5,36C 47.7656,36.9982 46.0989,38.8315 45.5,41.5C 44.0735,39.8516 43.2401,37.8516 43,35.5C 42.5014,31.8484 42.3347,28.1817 42.5,24.5C 43.1174,24.6107 43.6174,24.944 44,25.5C 47.4813,23.1709 51.3146,21.8375 55.5,21.5C 55.147,23.6348 55.9803,24.9681 58,25.5C 60.9124,23.9343 64.0791,23.101 67.5,23C 69.1554,21.5557 69.822,19.7224 69.5,17.5C 73.6928,17.6743 77.6928,18.6743 81.5,20.5C 82.2975,20.0431 82.6309,19.3764 82.5,18.5 Z"/></g>
<g><path style="opacity:0.992" fill="#ed3d3c" d="M 81.5,41.5 C 83.463,47.4392 82.463,52.7726 78.5,57.5C 76.4689,56.4613 75.1355,54.7946 74.5,52.5C 78.254,51.1724 79.4207,48.5058 78,44.5C 76.0312,41.8761 74.1978,41.8761 72.5,44.5C 71.5386,46.2646 71.2053,48.2646 71.5,50.5C 66.1667,47.8333 60.8333,47.8333 55.5,50.5C 55.6621,48.4727 55.4955,46.4727 55,44.5C 53,41.8333 51,41.8333 49,44.5C 47.3486,49.1592 48.8486,51.8258 53.5,52.5C 52.1182,54.5486 50.4516,56.2153 48.5,57.5C 44.537,52.7726 43.537,47.4392 45.5,41.5C 46.0989,38.8315 47.7656,36.9982 50.5,36C 59.8646,32.6775 69.1979,33.0108 78.5,37C 80.4386,37.9078 81.4386,39.4078 81.5,41.5 Z"/></g>
<g><path style="opacity:1" fill="#f2a3b3" d="M 33.5,27.5 C 34.1667,28.5 34.8333,29.5 35.5,30.5C 31.4547,34.3801 27.9547,38.7135 25,43.5C 23.1715,49.1152 23.0048,54.7819 24.5,60.5C 24.6309,61.3764 24.2975,62.0431 23.5,62.5C 22.3777,61.3698 21.0443,60.7031 19.5,60.5C 16.8076,51.3721 18.6409,43.0387 25,35.5C 27.7028,32.6286 30.5361,29.9619 33.5,27.5 Z"/></g>
<g><path style="opacity:0.964" fill="#d12b2a" d="M 28.5,56.5 C 27.9348,58.42 26.9348,60.0867 25.5,61.5C 25.5,60.8333 25.1667,60.5 24.5,60.5C 23.0048,54.7819 23.1715,49.1152 25,43.5C 27.9547,38.7135 31.4547,34.3801 35.5,30.5C 36.7899,29.9423 37.6232,28.9423 38,27.5C 39.7569,22.5152 38.0903,19.8485 33,19.5C 30.9919,19.3068 29.4919,19.9735 28.5,21.5C 27.3552,20.2073 27.6885,19.0407 29.5,18C 40.3962,16.0364 43.5629,20.203 39,30.5C 35.4245,34.653 32.0912,38.9863 29,43.5C 27.2649,47.7653 27.0983,52.0986 28.5,56.5 Z"/></g>
<g><path style="opacity:1" fill="#f4a6b6" d="M 93.5,27.5 C 104.754,35.0021 109.754,45.3354 108.5,58.5C 107.061,57.4908 105.728,57.8241 104.5,59.5C 103.702,59.0431 103.369,58.3764 103.5,57.5C 103.809,52.7325 103.309,48.0658 102,43.5C 99.0453,38.7135 95.5453,34.3801 91.5,30.5C 92.1667,29.5 92.8333,28.5 93.5,27.5 Z"/></g>
<g><path style="opacity:1" fill="#3b2f3d" d="M 55.5,50.5 C 55.1667,51.5 54.5,52.1667 53.5,52.5C 48.8486,51.8258 47.3486,49.1592 49,44.5C 51,41.8333 53,41.8333 55,44.5C 55.4955,46.4727 55.6621,48.4727 55.5,50.5 Z"/></g>
<g><path style="opacity:1" fill="#392d3b" d="M 74.5,52.5 C 72.9731,52.573 71.9731,51.9063 71.5,50.5C 71.2053,48.2646 71.5386,46.2646 72.5,44.5C 74.1978,41.8761 76.0312,41.8761 78,44.5C 79.4207,48.5058 78.254,51.1724 74.5,52.5 Z"/></g>
<g><path style="opacity:1" fill="#cac9cd" d="M 50.5,44.5 C 53.1247,45.4657 53.1247,46.4657 50.5,47.5C 49.4376,46.5754 49.4376,45.5754 50.5,44.5 Z"/></g>
<g><path style="opacity:1" fill="#d2d1d4" d="M 72.5,44.5 C 74.4646,44.9483 74.7979,45.9483 73.5,47.5C 72.6143,46.675 72.281,45.675 72.5,44.5 Z"/></g>
<g><path style="opacity:1" fill="#f03e3d" d="M 71.5,50.5 C 71.9731,51.9063 72.9731,52.573 74.5,52.5C 75.1355,54.7946 76.4689,56.4613 78.5,57.5C 78.5814,62.5606 77.4147,67.5606 75,72.5C 72.5222,74.8196 69.6889,76.4863 66.5,77.5C 53.7911,77.9198 49.1245,84.2531 52.5,96.5C 53.9206,101.76 54.9206,107.093 55.5,112.5C 55.1667,112.5 54.8333,112.5 54.5,112.5C 54.8432,110.517 54.1765,109.183 52.5,108.5C 49.2427,102.661 46.576,96.6615 44.5,90.5C 46.3671,88.1876 46.8671,85.5209 46,82.5C 43.834,83.7315 41.6674,84.7315 39.5,85.5C 35.7852,85.423 32.1185,85.7564 28.5,86.5C 28.5,84.5 27.5,83.5 25.5,83.5C 28.3112,82.525 31.3112,81.8583 34.5,81.5C 40.0566,81.1515 44.5566,78.8181 48,74.5C 48.7975,72.7412 48.6309,71.0745 47.5,69.5C 42.8756,74.1552 37.5423,77.4886 31.5,79.5C 27.1829,79.9166 23.1829,79.2499 19.5,77.5C 19.6498,75.9405 19.9831,74.2739 20.5,72.5C 23.9359,73.7815 27.2693,73.7815 30.5,72.5C 33.7705,73.2518 36.7705,72.4185 39.5,70C 33.0354,69.942 28.3687,67.1087 25.5,61.5C 26.9348,60.0867 27.9348,58.42 28.5,56.5C 34.5817,65.5044 41.2484,65.8377 48.5,57.5C 50.4516,56.2153 52.1182,54.5486 53.5,52.5C 54.5,52.1667 55.1667,51.5 55.5,50.5C 60.8333,47.8333 66.1667,47.8333 71.5,50.5 Z"/></g>
<g><path style="opacity:0.992" fill="#eb3c3c" d="M 78.5,57.5 C 80.8838,59.8847 83.5505,61.8847 86.5,63.5C 85.458,66.4232 84.1246,69.0898 82.5,71.5C 79.1728,68.8542 78.0062,69.8542 79,74.5C 81.8395,78.5015 85.6728,80.8348 90.5,81.5C 94.814,82.2745 99.1474,82.9412 103.5,83.5C 102.595,84.9643 102.595,86.2976 103.5,87.5C 100.236,86.6758 96.9023,86.3424 93.5,86.5C 91.0314,85.6829 88.3647,85.1829 85.5,85C 83.6711,84.7265 82.1711,83.8932 81,82.5C 80.1329,85.5209 80.6329,88.1876 82.5,90.5C 80.6582,96.5186 77.9916,102.185 74.5,107.5C 73.1001,108.1 72.1001,109.1 71.5,110.5C 72.4972,105.839 73.4972,101.173 74.5,96.5C 77.5745,87.6574 74.9078,81.3241 66.5,77.5C 69.6889,76.4863 72.5222,74.8196 75,72.5C 77.4147,67.5606 78.5814,62.5606 78.5,57.5 Z"/></g>
<g><path style="opacity:0.972" fill="#de3433" d="M 98.5,21.5 C 97.5081,19.9735 96.0081,19.3068 94,19.5C 91.9658,19.3536 90.2991,20.0203 89,21.5C 87.9302,25.1421 88.7636,28.1421 91.5,30.5C 95.5453,34.3801 99.0453,38.7135 102,43.5C 103.309,48.0658 103.809,52.7325 103.5,57.5C 101.313,65.5043 95.9801,69.6709 87.5,70C 90.1408,72.6815 93.1408,73.5148 96.5,72.5C 100.352,73.6437 104.352,73.6437 108.5,72.5C 108.501,73.7545 108.834,75.0878 109.5,76.5C 103.913,79.6604 97.9125,80.3271 91.5,78.5C 88.2139,76.5488 85.2139,74.2154 82.5,71.5C 84.1246,69.0898 85.458,66.4232 86.5,63.5C 94.6098,62.8875 98.9432,58.3875 99.5,50C 99.0531,47.0441 98.2197,44.2108 97,41.5C 91.2386,36.4662 87.4052,30.2995 85.5,23C 86.5559,18.9628 89.2226,17.1295 93.5,17.5C 96.2706,17.0816 98.2706,18.0816 99.5,20.5C 99.3764,21.1067 99.0431,21.44 98.5,21.5 Z"/></g>
<g><path style="opacity:0.984" fill="#db627b" d="M 19.5,60.5 C 21.0443,60.7031 22.3777,61.3698 23.5,62.5C 24.2975,62.0431 24.6309,61.3764 24.5,60.5C 25.1667,60.5 25.5,60.8333 25.5,61.5C 28.3687,67.1087 33.0354,69.942 39.5,70C 36.7705,72.4185 33.7705,73.2518 30.5,72.5C 25.4666,69.7981 21.8,65.7981 19.5,60.5 Z"/></g>
<g><path style="opacity:0.984" fill="#dc647c" d="M 103.5,57.5 C 103.369,58.3764 103.702,59.0431 104.5,59.5C 105.728,57.8241 107.061,57.4908 108.5,58.5C 106.26,64.7351 102.26,69.4018 96.5,72.5C 93.1408,73.5148 90.1408,72.6815 87.5,70C 95.9801,69.6709 101.313,65.5043 103.5,57.5 Z"/></g>
<g><path style="opacity:0.979" fill="#b21716" d="M 120.5,55.5 C 121.93,64.9693 118.263,71.9693 109.5,76.5C 108.834,75.0878 108.501,73.7545 108.5,72.5C 115.62,69.0454 119.62,63.3787 120.5,55.5 Z"/></g>
<g><path style="opacity:1" fill="#b81c1a" d="M 6.5,55.5 C 7.47543,64.1473 12.1421,69.814 20.5,72.5C 19.9831,74.2739 19.6498,75.9405 19.5,77.5C 9.44247,73.3667 5.10914,66.0334 6.5,55.5 Z"/></g>
<g><path style="opacity:0.938" fill="#f8b3c1" d="M 6.5,55.5 C 5.10914,66.0334 9.44247,73.3667 19.5,77.5C 23.1829,79.2499 27.1829,79.9166 31.5,79.5C 33.1788,79.2852 34.1788,79.9519 34.5,81.5C 31.3112,81.8583 28.3112,82.525 25.5,83.5C 24.1667,83.5 22.8333,83.5 21.5,83.5C 5.33901,78.1777 0.172342,67.511 6,51.5C 6.49001,52.7932 6.65668,54.1266 6.5,55.5 Z"/></g>
<g><path style="opacity:0.938" fill="#f8b2c0" d="M 105.5,83.5 C 104.833,83.5 104.167,83.5 103.5,83.5C 99.1474,82.9412 94.814,82.2745 90.5,81.5C 90.2627,80.209 90.596,79.209 91.5,78.5C 97.9125,80.3271 103.913,79.6604 109.5,76.5C 118.263,71.9693 121.93,64.9693 120.5,55.5C 120.497,50.4083 121.33,50.4083 123,55.5C 125.518,70.1421 119.685,79.4755 105.5,83.5 Z"/></g>
<g><path style="opacity:1" fill="#e3778c" d="M 82.5,71.5 C 85.2139,74.2154 88.2139,76.5488 91.5,78.5C 90.596,79.209 90.2627,80.209 90.5,81.5C 85.6728,80.8348 81.8395,78.5015 79,74.5C 78.0062,69.8542 79.1728,68.8542 82.5,71.5 Z"/></g>
<g><path style="opacity:1" fill="#e57f94" d="M 34.5,81.5 C 34.1788,79.9519 33.1788,79.2852 31.5,79.5C 37.5423,77.4886 42.8756,74.1552 47.5,69.5C 48.6309,71.0745 48.7975,72.7412 48,74.5C 44.5566,78.8181 40.0566,81.1515 34.5,81.5 Z"/></g>
<g><path style="opacity:0.988" fill="#ec91a4" d="M 66.5,77.5 C 74.9078,81.3241 77.5745,87.6574 74.5,96.5C 74.6621,94.4727 74.4955,92.4727 74,90.5C 72.8545,89.3157 71.6879,89.3157 70.5,90.5C 70.6341,85.6346 68.3007,83.6346 63.5,84.5C 58.6993,83.6346 56.3659,85.6346 56.5,90.5C 53.2244,91.1216 51.8911,93.1216 52.5,96.5C 49.1245,84.2531 53.7911,77.9198 66.5,77.5 Z"/></g>
<g><path style="opacity:1" fill="#de657b" d="M 44.5,90.5 C 43.8333,90.5 43.1667,90.5 42.5,90.5C 42.5,88.8333 42.5,87.1667 42.5,85.5C 41.5,85.5 40.5,85.5 39.5,85.5C 41.6674,84.7315 43.834,83.7315 46,82.5C 46.8671,85.5209 46.3671,88.1876 44.5,90.5 Z"/></g>
<g><path style="opacity:1" fill="#e47b91" d="M 93.5,86.5 C 92.1667,86.5 90.8333,86.5 89.5,86.5C 89.5,87.8333 89.5,89.1667 89.5,90.5C 88.5,90.5 87.5,90.5 86.5,90.5C 85.1667,90.5 83.8333,90.5 82.5,90.5C 80.6329,88.1876 80.1329,85.5209 81,82.5C 82.1711,83.8932 83.6711,84.7265 85.5,85C 88.3647,85.1829 91.0314,85.6829 93.5,86.5 Z"/></g>
<g><path style="opacity:1" fill="#f19eae" d="M 39.5,85.5 C 40.5,85.5 41.5,85.5 42.5,85.5C 42.5,87.1667 42.5,88.8333 42.5,90.5C 36.467,91.1232 30.467,91.7899 24.5,92.5C 24.2014,90.5447 23.2014,89.2114 21.5,88.5C 23.5145,87.0762 25.8478,86.4095 28.5,86.5C 32.1185,85.7564 35.7852,85.423 39.5,85.5 Z"/></g>
<g><path style="opacity:0.917" fill="#fabac7" d="M 21.5,88.5 C 23.2014,89.2114 24.2014,90.5447 24.5,92.5C 16.1679,95.8118 14.3346,101.478 19,109.5C 21.0129,111.248 23.1795,112.582 25.5,113.5C 15.272,112.406 11.4387,106.74 14,96.5C 15.3241,92.6775 17.8241,90.0108 21.5,88.5 Z"/></g>
<g><path style="opacity:0.931" fill="#f8b4c2" d="M 93.5,86.5 C 96.9023,86.3424 100.236,86.6758 103.5,87.5C 112.927,91.701 115.76,98.701 112,108.5C 109.45,112.192 105.95,113.858 101.5,113.5C 109.295,110.31 111.795,104.643 109,96.5C 107.833,95.3333 106.667,94.1667 105.5,93C 99.0473,92.012 92.714,91.1787 86.5,90.5C 87.5,90.5 88.5,90.5 89.5,90.5C 89.5,89.1667 89.5,87.8333 89.5,86.5C 90.8333,86.5 92.1667,86.5 93.5,86.5 Z"/></g>
<g><path style="opacity:0.905" fill="#a81513" d="M 21.5,83.5 C 22.8333,83.5 24.1667,83.5 25.5,83.5C 27.5,83.5 28.5,84.5 28.5,86.5C 25.8478,86.4095 23.5145,87.0762 21.5,88.5C 17.8241,90.0108 15.3241,92.6775 14,96.5C 11.4387,106.74 15.272,112.406 25.5,113.5C 18.9812,115.473 14.4812,113.14 12,106.5C 9.12482,96.2591 12.2915,88.5924 21.5,83.5 Z"/></g>
<g><path style="opacity:0.905" fill="#a61412" d="M 103.5,83.5 C 104.167,83.5 104.833,83.5 105.5,83.5C 114.709,88.5924 117.875,96.2591 115,106.5C 112.519,113.14 108.019,115.473 101.5,113.5C 105.95,113.858 109.45,112.192 112,108.5C 115.76,98.701 112.927,91.701 103.5,87.5C 102.595,86.2976 102.595,84.9643 103.5,83.5 Z"/></g>
<g><path style="opacity:0.907" fill="#f9b5c4" d="M 56.5,90.5 C 59.6243,98.6355 60.6243,106.969 59.5,115.5C 58.1667,115.5 56.8333,115.5 55.5,115.5C 55.5,114.5 55.5,113.5 55.5,112.5C 54.9206,107.093 53.9206,101.76 52.5,96.5C 51.8911,93.1216 53.2244,91.1216 56.5,90.5 Z"/></g>
<g><path style="opacity:0.907" fill="#f9b7c5" d="M 74.5,96.5 C 73.4972,101.173 72.4972,105.839 71.5,110.5C 71.5,111.167 71.5,111.833 71.5,112.5C 70.8166,114.176 69.4832,114.843 67.5,114.5C 66.5274,106.346 67.5274,98.3458 70.5,90.5C 71.6879,89.3157 72.8545,89.3157 74,90.5C 74.4955,92.4727 74.6621,94.4727 74.5,96.5 Z"/></g>
<g><path style="opacity:0.901" fill="#db677f" d="M 36.5,108.5 C 37.4553,119.142 42.7887,122.309 52.5,118C 53.8613,116.416 54.528,114.582 54.5,112.5C 54.8333,112.5 55.1667,112.5 55.5,112.5C 55.5,113.5 55.5,114.5 55.5,115.5C 56.8333,115.5 58.1667,115.5 59.5,115.5C 55.5729,122.623 49.5729,125.123 41.5,123C 35.085,119.587 33.4183,114.753 36.5,108.5 Z"/></g>
<g><path style="opacity:0.894" fill="#d86079" d="M 90.5,108.5 C 93.8143,117.567 90.481,122.567 80.5,123.5C 76.9477,123.864 73.9477,122.864 71.5,120.5C 72.8333,119.833 74.1667,119.167 75.5,118.5C 84.7996,122.002 89.7996,118.669 90.5,108.5 Z"/></g>
<g><path style="opacity:0.89" fill="#e8899c" d="M 71.5,112.5 C 72.325,114.81 73.6583,116.81 75.5,118.5C 74.1667,119.167 72.8333,119.833 71.5,120.5C 69.6736,118.853 68.3403,116.853 67.5,114.5C 69.4832,114.843 70.8166,114.176 71.5,112.5 Z"/></g>
<g><path style="opacity:0.956" fill="#a61110" d="M 52.5,108.5 C 54.1765,109.183 54.8432,110.517 54.5,112.5C 54.528,114.582 53.8613,116.416 52.5,118C 42.7887,122.309 37.4553,119.142 36.5,108.5C 36.369,107.761 36.5357,107.094 37,106.5C 37.062,112.387 39.8954,116.054 45.5,117.5C 50.4985,116.508 52.8318,113.508 52.5,108.5 Z"/></g>
<g><path style="opacity:0.956" fill="#a81211" d="M 90.5,108.5 C 89.7996,118.669 84.7996,122.002 75.5,118.5C 73.6583,116.81 72.325,114.81 71.5,112.5C 71.5,111.833 71.5,111.167 71.5,110.5C 72.1001,109.1 73.1001,108.1 74.5,107.5C 74.3229,115.501 77.9895,118.334 85.5,116C 88.1419,113.424 89.6419,110.257 90,106.5C 90.4643,107.094 90.631,107.761 90.5,108.5 Z"/></g>
</svg>
